<mxfile host="" modified="2020-07-06T22:54:55.156Z" agent="5.0 (Windows NT 10.0; Win64; x64) AppleWebKit/537.36 (KHTML, like Gecko) Code/1.46.1 Chrome/78.0.3904.130 Electron/7.3.1 Safari/537.36" etag="P3ZbPQh1TR1yCKxZwV3j" version="13.1.3">
    <diagram id="6hGFLwfOUW9BJ-s0fimq" name="Page-1">
        <mxGraphModel dx="1732" dy="1320" grid="1" gridSize="10" guides="1" tooltips="1" connect="1" arrows="1" fold="1" page="1" pageScale="1" pageWidth="827" pageHeight="1169" math="0" shadow="0">
            <root>
                <mxCell id="0"/>
                <mxCell id="1" parent="0"/>
                <mxCell id="77" value="" style="rounded=1;whiteSpace=wrap;html=1;" parent="1" vertex="1">
                    <mxGeometry x="60" y="110" width="260" height="150" as="geometry"/>
                </mxCell>
                <mxCell id="78" value="ControlSystem" style="text;html=1;strokeColor=none;fillColor=none;align=center;verticalAlign=middle;whiteSpace=wrap;rounded=0;" parent="1" vertex="1">
                    <mxGeometry x="90" y="126" width="80" height="20" as="geometry"/>
                </mxCell>
                <mxCell id="14" value="" style="rounded=1;whiteSpace=wrap;html=1;" parent="1" vertex="1">
                    <mxGeometry x="470" y="111" width="170" height="120" as="geometry"/>
                </mxCell>
                <mxCell id="15" value="«interface»&lt;br&gt;&lt;b&gt;ISaveable&lt;/b&gt;" style="html=1;" parent="1" vertex="1">
                    <mxGeometry x="500" y="156" width="110" height="50" as="geometry"/>
                </mxCell>
                <mxCell id="16" value="SavingSystem" style="text;html=1;strokeColor=none;fillColor=none;align=center;verticalAlign=middle;whiteSpace=wrap;rounded=0;" parent="1" vertex="1">
                    <mxGeometry x="500" y="126" width="80" height="20" as="geometry"/>
                </mxCell>
                <mxCell id="21" value="&lt;p style=&quot;margin: 0px ; margin-top: 4px ; text-align: center&quot;&gt;&lt;i&gt;&amp;lt;&amp;lt;Interface&amp;gt;&amp;gt;&lt;/i&gt;&lt;br&gt;&lt;/p&gt;&lt;p style=&quot;margin: 0px ; margin-top: 4px ; text-align: center&quot;&gt;&lt;b&gt;IModifierProvider&lt;/b&gt;&lt;/p&gt;&lt;hr size=&quot;1&quot;&gt;&lt;p style=&quot;margin: 4px 0px 0px&quot;&gt;&lt;b&gt;+ IEnumerable&amp;lt;float&amp;gt; GetAdditiveModifiers(Stat stat);&lt;/b&gt;&lt;/p&gt;&lt;p style=&quot;margin: 4px 0px 0px&quot;&gt;&lt;b&gt;+ IEnumerable&amp;lt;float&amp;gt; GetPercentageModifiers(Stat stat);&lt;/b&gt;&lt;/p&gt;" style="verticalAlign=top;align=left;overflow=fill;fontSize=12;fontFamily=Helvetica;html=1;" parent="1" vertex="1">
                    <mxGeometry x="651" y="684" width="330" height="100" as="geometry"/>
                </mxCell>
                <mxCell id="36" value="&lt;p style=&quot;margin: 0px ; margin-top: 4px ; text-align: center&quot;&gt;&lt;i&gt;&amp;lt;&amp;lt;Interface&amp;gt;&amp;gt;&lt;/i&gt;&lt;br&gt;&lt;b&gt;IAction&lt;/b&gt;&lt;/p&gt;&lt;hr size=&quot;1&quot;&gt;&lt;p style=&quot;margin: 0px ; margin-left: 4px&quot;&gt;+&amp;nbsp;Cancel();&lt;/p&gt;" style="verticalAlign=top;align=left;overflow=fill;fontSize=12;fontFamily=Helvetica;html=1;" parent="1" vertex="1">
                    <mxGeometry x="90" y="161" width="190" height="70" as="geometry"/>
                </mxCell>
                <mxCell id="37" value="" style="endArrow=block;dashed=1;endFill=0;endSize=12;html=1;entryX=0.5;entryY=1;entryDx=0;entryDy=0;exitX=0.5;exitY=0;exitDx=0;exitDy=0;" parent="1" source="32" target="36" edge="1">
                    <mxGeometry width="160" relative="1" as="geometry">
                        <mxPoint x="-80" y="360" as="sourcePoint"/>
                        <mxPoint x="-80" y="276" as="targetPoint"/>
                    </mxGeometry>
                </mxCell>
                <mxCell id="38" value="" style="endArrow=block;dashed=1;endFill=0;endSize=12;html=1;entryX=0.5;entryY=1;entryDx=0;entryDy=0;exitX=0.5;exitY=0;exitDx=0;exitDy=0;" parent="1" source="32" target="15" edge="1">
                    <mxGeometry width="160" relative="1" as="geometry">
                        <mxPoint x="425" y="360" as="sourcePoint"/>
                        <mxPoint x="565" y="250" as="targetPoint"/>
                    </mxGeometry>
                </mxCell>
                <mxCell id="66" value="" style="endArrow=block;dashed=1;endFill=0;endSize=12;html=1;exitX=0.5;exitY=0;exitDx=0;exitDy=0;entryX=0.5;entryY=1;entryDx=0;entryDy=0;" parent="1" source="62" target="15" edge="1">
                    <mxGeometry width="160" relative="1" as="geometry">
                        <mxPoint x="465" y="360" as="sourcePoint"/>
                        <mxPoint x="790" y="270" as="targetPoint"/>
                    </mxGeometry>
                </mxCell>
                <mxCell id="71" value="1" style="endArrow=open;html=1;endSize=12;startArrow=diamondThin;startSize=14;startFill=1;align=left;verticalAlign=bottom;" parent="1" source="67" target="21" edge="1">
                    <mxGeometry x="-1" y="3" relative="1" as="geometry">
                        <mxPoint x="256" y="869" as="sourcePoint"/>
                        <mxPoint x="416" y="869" as="targetPoint"/>
                    </mxGeometry>
                </mxCell>
                <mxCell id="72" value="1" style="endArrow=open;html=1;endSize=12;startArrow=diamondThin;startSize=14;startFill=1;align=left;verticalAlign=bottom;" parent="1" source="67" target="62" edge="1">
                    <mxGeometry x="-1" y="3" relative="1" as="geometry">
                        <mxPoint x="259" y="360" as="sourcePoint"/>
                        <mxPoint x="259" y="281" as="targetPoint"/>
                    </mxGeometry>
                </mxCell>
                <mxCell id="73" value="1" style="endArrow=open;html=1;endSize=12;startArrow=diamondThin;startSize=14;startFill=1;align=left;verticalAlign=bottom;" parent="1" source="10" target="62" edge="1">
                    <mxGeometry x="-1" y="3" relative="1" as="geometry">
                        <mxPoint x="259" y="360" as="sourcePoint"/>
                        <mxPoint x="845" y="360" as="targetPoint"/>
                    </mxGeometry>
                </mxCell>
                <mxCell id="74" value="1" style="endArrow=open;html=1;endSize=12;startArrow=diamondThin;startSize=14;startFill=1;align=left;verticalAlign=bottom;" parent="1" source="32" target="10" edge="1">
                    <mxGeometry x="-1" y="3" relative="1" as="geometry">
                        <mxPoint x="500" y="454" as="sourcePoint"/>
                        <mxPoint x="845" y="360" as="targetPoint"/>
                    </mxGeometry>
                </mxCell>
                <mxCell id="75" value="1" style="endArrow=open;html=1;endSize=12;startArrow=diamondThin;startSize=14;startFill=1;align=left;verticalAlign=bottom;" parent="1" source="32" target="67" edge="1">
                    <mxGeometry x="-1" y="3" relative="1" as="geometry">
                        <mxPoint x="500" y="454" as="sourcePoint"/>
                        <mxPoint x="845" y="360" as="targetPoint"/>
                    </mxGeometry>
                </mxCell>
                <mxCell id="76" value="" style="endArrow=block;dashed=1;endFill=0;endSize=12;html=1;exitX=0.5;exitY=0;exitDx=0;exitDy=0;entryX=0.5;entryY=1;entryDx=0;entryDy=0;" parent="1" source="10" target="15" edge="1">
                    <mxGeometry width="160" relative="1" as="geometry">
                        <mxPoint x="845" y="360" as="sourcePoint"/>
                        <mxPoint x="730" y="225" as="targetPoint"/>
                    </mxGeometry>
                </mxCell>
                <mxCell id="32" value="Fighter" style="swimlane;fontStyle=1;align=center;verticalAlign=top;childLayout=stackLayout;horizontal=1;startSize=26;horizontalStack=0;resizeParent=1;resizeParentMax=0;resizeLast=0;collapsible=1;marginBottom=0;" parent="1" vertex="1">
                    <mxGeometry x="90" y="340" width="190" height="380" as="geometry"/>
                </mxCell>
                <mxCell id="33" value="+ currentWeapon&#10;+ currentWeaponConfig&#10;+ defaultWeaponConfig&#10;+ equipment&#10;+ leftHandTransform&#10;+ mover&#10;+ rightHandTransform&#10;+ target&#10;+ timeBetweenAttacks&#10;+ timeSinceLastAttack" style="text;strokeColor=none;fillColor=none;align=left;verticalAlign=top;spacingLeft=4;spacingRight=4;overflow=hidden;rotatable=0;points=[[0,0.5],[1,0.5]];portConstraint=eastwest;" parent="32" vertex="1">
                    <mxGeometry y="26" width="190" height="144" as="geometry"/>
                </mxCell>
                <mxCell id="34" value="" style="line;strokeWidth=1;fillColor=none;align=left;verticalAlign=middle;spacingTop=-1;spacingLeft=3;spacingRight=3;rotatable=0;labelPosition=right;points=[];portConstraint=eastwest;" parent="32" vertex="1">
                    <mxGeometry y="170" width="190" height="8" as="geometry"/>
                </mxCell>
                <mxCell id="35" value="+ AttachWeapon(WeaponConfig)&#10;+ Attack(GameObject)&#10;+ AttackBehaviour()&#10;+ CanAttack(GameObject)&#10;+ EquipWeapon(WeaponConfig)&#10;+ GetIsInRange(Transform)&#10;+ GetTarget()&#10;+ Hit()&#10;+ SetDefaultWeapon()&#10;+ Shoot()&#10;+ Start()&#10;+ StopAttack()&#10;+ TriggerAttack()&#10;+ UpdateWeapon()" style="text;strokeColor=none;fillColor=none;align=left;verticalAlign=top;spacingLeft=4;spacingRight=4;overflow=hidden;rotatable=0;points=[[0,0.5],[1,0.5]];portConstraint=eastwest;" parent="32" vertex="1">
                    <mxGeometry y="178" width="190" height="202" as="geometry"/>
                </mxCell>
                <mxCell id="10" value="Health" style="swimlane;fontStyle=1;align=center;verticalAlign=top;childLayout=stackLayout;horizontal=1;startSize=26;horizontalStack=0;resizeParent=1;resizeParentMax=0;resizeLast=0;collapsible=1;marginBottom=0;" parent="1" vertex="1">
                    <mxGeometry x="410" y="320" width="200" height="228" as="geometry"/>
                </mxCell>
                <mxCell id="11" value="healthPoints&#10;isDead&#10;onDie&#10;regenationPercentage&#10;takeDamage" style="text;strokeColor=none;fillColor=none;align=left;verticalAlign=top;spacingLeft=4;spacingRight=4;overflow=hidden;rotatable=0;points=[[0,0.5],[1,0.5]];portConstraint=eastwest;" parent="10" vertex="1">
                    <mxGeometry y="26" width="200" height="84" as="geometry"/>
                </mxCell>
                <mxCell id="12" value="" style="line;strokeWidth=1;fillColor=none;align=left;verticalAlign=middle;spacingTop=-1;spacingLeft=3;spacingRight=3;rotatable=0;labelPosition=right;points=[];portConstraint=eastwest;" parent="10" vertex="1">
                    <mxGeometry y="110" width="200" height="8" as="geometry"/>
                </mxCell>
                <mxCell id="13" value="+ AwardExperience(GameObject)&#10;+ Die()&#10;+ GetPercentage()&#10;+ Heal(float)&#10;+ IsDead()&#10;+ RegenerateHealth()&#10;+ TakeDamage(GameObject, float)" style="text;strokeColor=none;fillColor=none;align=left;verticalAlign=top;spacingLeft=4;spacingRight=4;overflow=hidden;rotatable=0;points=[[0,0.5],[1,0.5]];portConstraint=eastwest;" parent="10" vertex="1">
                    <mxGeometry y="118" width="200" height="110" as="geometry"/>
                </mxCell>
                <mxCell id="62" value="Experience" style="swimlane;fontStyle=1;align=center;verticalAlign=top;childLayout=stackLayout;horizontal=1;startSize=26;horizontalStack=0;resizeParent=1;resizeParentMax=0;resizeLast=0;collapsible=1;marginBottom=0;" parent="1" vertex="1">
                    <mxGeometry x="710" y="340" width="210" height="94" as="geometry"/>
                </mxCell>
                <mxCell id="63" value="experiencePoint : float&#10;onExperienceGained : event Action" style="text;strokeColor=none;fillColor=none;align=left;verticalAlign=top;spacingLeft=4;spacingRight=4;overflow=hidden;rotatable=0;points=[[0,0.5],[1,0.5]];portConstraint=eastwest;" parent="62" vertex="1">
                    <mxGeometry y="26" width="210" height="34" as="geometry"/>
                </mxCell>
                <mxCell id="64" value="" style="line;strokeWidth=1;fillColor=none;align=left;verticalAlign=middle;spacingTop=-1;spacingLeft=3;spacingRight=3;rotatable=0;labelPosition=right;points=[];portConstraint=eastwest;" parent="62" vertex="1">
                    <mxGeometry y="60" width="210" height="8" as="geometry"/>
                </mxCell>
                <mxCell id="65" value="GainExperience(float experience)" style="text;strokeColor=none;fillColor=none;align=left;verticalAlign=top;spacingLeft=4;spacingRight=4;overflow=hidden;rotatable=0;points=[[0,0.5],[1,0.5]];portConstraint=eastwest;" parent="62" vertex="1">
                    <mxGeometry y="68" width="210" height="26" as="geometry"/>
                </mxCell>
                <mxCell id="67" value="BaseStats" style="swimlane;fontStyle=1;align=center;verticalAlign=top;childLayout=stackLayout;horizontal=1;startSize=26;horizontalStack=0;resizeParent=1;resizeParentMax=0;resizeLast=0;collapsible=1;marginBottom=0;" parent="1" vertex="1">
                    <mxGeometry x="420" y="620" width="160" height="260" as="geometry"/>
                </mxCell>
                <mxCell id="69" value="" style="line;strokeWidth=1;fillColor=none;align=left;verticalAlign=middle;spacingTop=-1;spacingLeft=3;spacingRight=3;rotatable=0;labelPosition=right;points=[];portConstraint=eastwest;" parent="67" vertex="1">
                    <mxGeometry y="26" width="160" height="8" as="geometry"/>
                </mxCell>
                <mxCell id="70" value="+ CalculateLevel()&#10;+ GetAddittiveModifier(Stat)&#10;+ GetBaseStat(Stat)&#10;+ GetLevel()&#10;+ GetPercentageModifier(Stat)&#10;+ GetStat(Stat)&#10;+ LevelUpEffect()&#10;+ UpdateLevel()" style="text;strokeColor=none;fillColor=none;align=left;verticalAlign=top;spacingLeft=4;spacingRight=4;overflow=hidden;rotatable=0;points=[[0,0.5],[1,0.5]];portConstraint=eastwest;" parent="67" vertex="1">
                    <mxGeometry y="34" width="160" height="122" as="geometry"/>
                </mxCell>
                <mxCell id="68" value="+ characterClass&#10;+ currentLevel&#10;+ experience&#10;+ levelUpParticleEffect&#10;+ progression&#10;+ startingLevel&#10;+ onLevelUp" style="text;strokeColor=none;fillColor=none;align=left;verticalAlign=top;spacingLeft=4;spacingRight=4;overflow=hidden;rotatable=0;points=[[0,0.5],[1,0.5]];portConstraint=eastwest;" parent="67" vertex="1">
                    <mxGeometry y="156" width="160" height="104" as="geometry"/>
                </mxCell>
                <mxCell id="79" value="????" style="text;html=1;align=center;verticalAlign=middle;resizable=0;points=[];autosize=1;fontColor=#3333FF;labelBorderColor=none;labelBackgroundColor=none;fontSize=24;fontStyle=1" vertex="1" parent="1">
                    <mxGeometry x="90" y="50" width="110" height="30" as="geometry"/>
                </mxCell>
            </root>
        </mxGraphModel>
    </diagram>
</mxfile>